# xmcd CD database file
#
# Track frame offsets:
#	150
#	33432
#	60992
#	100674
#	155803
#
# Disc length: 2642 seconds
#
# Revision: 3
# Processed by: cddbd v1.5.2PL0 Copyright (c) Steve Scherf et al.
# Submitted via: CDex 1.51
#
DISCID=350a5005
DTITLE=King Crimson - In The Court Of Crimson King
DYEAR=1969
DGENRE=Progressive Rock
TTITLE0=21st Century Schizoid Man
TTITLE1=I Talk To The Wind
TTITLE2=Epitaph
TTITLE3=Moonchild
TTITLE4=The Court Of The Crimson King
EXTD=YEAR: 1969
EXTT0=
EXTT1=
EXTT2=
EXTT3=
EXTT4=
PLAYORDER=
